<svg width="32" height="32" viewBox="0 0 25 25" fill="none" xmlns="http://www.w3.org/2000/svg">
<g id="keep.alive.icon">
<path id="Vector" d="M19.9569 20.8669C20.9334 19.7951 21.6697 18.6063 22.1659 17.3004C22.662 15.9946 22.8965 14.6284 22.8693 13.2017C22.8422 11.7751 22.5146 10.3843 21.8868 9.0295L20.6363 9.60898C21.7403 11.9912 21.8275 14.4056 20.8979 16.8522C19.9683 19.2987 18.2843 21.087 15.8459 22.217C13.4074 23.347 10.9544 23.4759 8.48687 22.6036C6.01931 21.7313 4.23355 20.104 3.1296 17.7218C2.02564 15.3395 1.93845 12.9251 2.86803 10.4786C3.79761 8.03201 5.48161 6.24373 7.92005 5.11374L8.39617 4.8931L7.28273 7.82357L8.57495 8.29212L10.5119 3.14208L5.28231 1.31308L4.80479 2.60174L7.83004 3.67144L7.35392 3.89208C5.96714 4.53472 4.7855 5.39197 3.80901 6.46381C2.83251 7.53566 2.09619 8.7245 1.60004 10.0303C1.10388 11.3362 0.869398 12.7024 0.896583 14.129C0.923768 15.5557 1.25128 16.9464 1.87912 18.3013C2.50696 19.6561 3.35633 20.805 4.42725 21.7479C5.49817 22.6909 6.69215 23.3952 8.0092 23.8608C9.32624 24.3263 10.7093 24.5331 12.1583 24.4809C13.6073 24.4287 15.0252 24.0813 16.412 23.4387C17.7988 22.796 18.9804 21.9388 19.9569 20.8669Z" fill="black"/>
<path id="Vector_2" d="M11.7353 22V16.3L8.21765 19.75L7.14706 18.7L11.4294 14.5L7.14706 10.3L8.21765 9.25L11.7353 12.7V7H12.5L16.8588 11.275L13.5706 14.5L16.8588 17.725L12.5 22H11.7353ZM13.2647 12.7L14.7176 11.275L13.2647 9.8875V12.7ZM13.2647 19.1125L14.7176 17.725L13.2647 16.3V19.1125ZM6.33456 15.2969C6.11152 15.0781 6 14.8125 6 14.5C6 14.1875 6.11152 13.9219 6.33456 13.7031C6.5576 13.4844 6.82843 13.375 7.14706 13.375C7.46569 13.375 7.73652 13.4844 7.95956 13.7031C8.1826 13.9219 8.29412 14.1875 8.29412 14.5C8.29412 14.8125 8.1826 15.0781 7.95956 15.2969C7.73652 15.5156 7.46569 15.625 7.14706 15.625C6.82843 15.625 6.5576 15.5156 6.33456 15.2969ZM17.0404 15.2969C16.8174 15.0781 16.7059 14.8125 16.7059 14.5C16.7059 14.1875 16.8174 13.9219 17.0404 13.7031C17.2635 13.4844 17.5343 13.375 17.8529 13.375C18.1716 13.375 18.4424 13.4844 18.6654 13.7031C18.8885 13.9219 19 14.1875 19 14.5C19 14.8125 18.8885 15.0781 18.6654 15.2969C18.4424 15.5156 18.1716 15.625 17.8529 15.625C17.5343 15.625 17.2635 15.5156 17.0404 15.2969Z" fill="black"/>
</g>
</svg>
