<?xml version="1.0" encoding="UTF-8"?>
<!--Generator: Apple Native CoreSVG 341-->
<!DOCTYPE svg
PUBLIC "-//W3C//DTD SVG 1.1//EN"
       "http://www.w3.org/Graphics/SVG/1.1/DTD/svg11.dtd">
<svg version="1.1" xmlns="http://www.w3.org/2000/svg" xmlns:xlink="http://www.w3.org/1999/xlink" viewBox="0 0 3300 2200">
 <!--glyph: "", point size: 100.0, font version: "21.1d1e1", template writer version: "138.0.0"-->
 <style>.defaults {-sfsymbols-wiggle-style:counterClockwise;-sfsymbols-rotates-clockwise:false;-sfsymbols-draw-reverses-motion-groups:true}

.monochrome-0 {-sfsymbols-motion-group:1;-sfsymbols-always-rotates:true;-sfsymbols-layer-tags:-73071bfbf05742ce _enclosure.stroke arrow.trianglehead.counterclockwise;-sfsymbols-clipstroke-attachments:1 4 0 1 0 0}
.monochrome-1 {-sfsymbols-motion-group:0;-sfsymbols-always-pulses:true;-sfsymbols-layer-tags:-73071bfbf05742ce 15ca97f72e962ff8}

.multicolor-0:tintColor {-sfsymbols-motion-group:1;-sfsymbols-always-rotates:true;-sfsymbols-layer-tags:-73071bfbf05742ce _enclosure.stroke arrow.trianglehead.counterclockwise;-sfsymbols-clipstroke-attachments:1 4 0 1 0 0}
.multicolor-1:tintColor {-sfsymbols-motion-group:0;-sfsymbols-always-pulses:true;-sfsymbols-layer-tags:-73071bfbf05742ce 15ca97f72e962ff8}

.hierarchical-0:secondary {-sfsymbols-motion-group:1;-sfsymbols-always-rotates:true;-sfsymbols-layer-tags:-73071bfbf05742ce _enclosure.stroke arrow.trianglehead.counterclockwise;-sfsymbols-clipstroke-attachments:1 4 0 1 0 0}
.hierarchical-1:primary {-sfsymbols-motion-group:0;-sfsymbols-always-pulses:true;-sfsymbols-layer-tags:-73071bfbf05742ce 15ca97f72e962ff8}

.SFSymbolsPreviewWireframe {fill:none;opacity:1.0;stroke:black;stroke-width:0.5}
</style>
 <g id="Notes">
  <rect height="2200" id="artboard" style="fill:white;opacity:1" width="3300" x="0" y="0"/>
  <line style="fill:none;stroke:black;opacity:1;stroke-width:0.5;" x1="263" x2="3036" y1="292" y2="292"/>
  <text style="stroke:none;fill:black;font-family:sans-serif;font-size:13;font-weight:bold;" transform="matrix(1 0 0 1 263 322)">Weight/Scale Variations</text>
  <text style="stroke:none;fill:black;font-family:sans-serif;font-size:13;text-anchor:middle;" transform="matrix(1 0 0 1 559.711 322)">Ultralight</text>
  <text style="stroke:none;fill:black;font-family:sans-serif;font-size:13;text-anchor:middle;" transform="matrix(1 0 0 1 856.422 322)">Thin</text>
  <text style="stroke:none;fill:black;font-family:sans-serif;font-size:13;text-anchor:middle;" transform="matrix(1 0 0 1 1153.13 322)">Light</text>
  <text style="stroke:none;fill:black;font-family:sans-serif;font-size:13;text-anchor:middle;" transform="matrix(1 0 0 1 1449.84 322)">Regular</text>
  <text style="stroke:none;fill:black;font-family:sans-serif;font-size:13;text-anchor:middle;" transform="matrix(1 0 0 1 1746.56 322)">Medium</text>
  <text style="stroke:none;fill:black;font-family:sans-serif;font-size:13;text-anchor:middle;" transform="matrix(1 0 0 1 2043.27 322)">Semibold</text>
  <text style="stroke:none;fill:black;font-family:sans-serif;font-size:13;text-anchor:middle;" transform="matrix(1 0 0 1 2339.98 322)">Bold</text>
  <text style="stroke:none;fill:black;font-family:sans-serif;font-size:13;text-anchor:middle;" transform="matrix(1 0 0 1 2636.69 322)">Heavy</text>
  <text style="stroke:none;fill:black;font-family:sans-serif;font-size:13;text-anchor:middle;" transform="matrix(1 0 0 1 2933.4 322)">Black</text>
  <line style="fill:none;stroke:black;opacity:1;stroke-width:0.5;" x1="263" x2="3036" y1="1903" y2="1903"/>
  <g transform="matrix(0.2 0 0 0.2 263 1933)">
   <path d="m46.2402 4.15039c21.7773 0 39.4531-17.627 39.4531-39.4043s-17.6758-39.4043-39.4531-39.4043c-21.7285 0-39.4043 17.627-39.4043 39.4043s17.6758 39.4043 39.4043 39.4043Zm0-7.42188c-17.6758 0-31.9336-14.3066-31.9336-31.9824s14.2578-31.9824 31.9336-31.9824 31.9824 14.3066 31.9824 31.9824-14.3066 31.9824-31.9824 31.9824Zm3.61328-17.7734v-28.4668c0-2.24609-1.46484-3.75977-3.71094-3.75977-2.14844 0-3.61328 1.51367-3.61328 3.75977v28.4668c0 2.19727 1.46484 3.71094 3.61328 3.71094 2.24609 0 3.71094-1.51367 3.71094-3.71094Zm-17.8223-10.5957h28.418c2.19727 0 3.71094-1.46484 3.71094-3.61328 0-2.19727-1.51367-3.71094-3.71094-3.71094h-28.418c-2.24609 0-3.75977 1.51367-3.75977 3.71094 0 2.14844 1.51367 3.61328 3.75977 3.61328Z"/>
  </g>
  <g transform="matrix(0.2 0 0 0.2 281.506 1933)">
   <path d="m58.5449 14.5508c27.4902 0 49.8047-22.3145 49.8047-49.8047s-22.3145-49.8047-49.8047-49.8047-49.8047 22.3145-49.8047 49.8047 22.3145 49.8047 49.8047 49.8047Zm0-8.30078c-22.9492 0-41.5039-18.5547-41.5039-41.5039s18.5547-41.5039 41.5039-41.5039 41.5039 18.5547 41.5039 41.5039-18.5547 41.5039-41.5039 41.5039Zm4.05273-23.0957v-36.9141c0-2.49023-1.70898-4.19922-4.15039-4.19922-2.39258 0-4.05273 1.70898-4.05273 4.19922v36.9141c0 2.44141 1.66016 4.15039 4.05273 4.15039 2.44141 0 4.15039-1.66016 4.15039-4.15039Zm-22.5586-14.4043h36.9629c2.44141 0 4.15039-1.61133 4.15039-4.00391 0-2.44141-1.70898-4.15039-4.15039-4.15039h-36.9629c-2.49023 0-4.15039 1.70898-4.15039 4.15039 0 2.39258 1.66016 4.00391 4.15039 4.00391Z"/>
  </g>
  <g transform="matrix(0.2 0 0 0.2 304.924 1933)">
   <path d="m74.8535 28.3203c35.1074 0 63.623-28.4668 63.623-63.5742s-28.5156-63.623-63.623-63.623-63.5742 28.5156-63.5742 63.623 28.4668 63.5742 63.5742 63.5742Zm0-9.08203c-30.127 0-54.4922-24.3652-54.4922-54.4922s24.3652-54.4922 54.4922-54.4922 54.4922 24.3652 54.4922 54.4922-24.3652 54.4922-54.4922 54.4922Zm4.44336-30.3223v-48.4863c0-2.73438-1.85547-4.63867-4.54102-4.63867-2.58789 0-4.44336 1.9043-4.44336 4.63867v48.4863c0 2.68555 1.85547 4.58984 4.44336 4.58984 2.68555 0 4.54102-1.85547 4.54102-4.58984Zm-28.7109-19.7754h48.4863c2.68555 0 4.58984-1.80664 4.58984-4.39453 0-2.73438-1.85547-4.58984-4.58984-4.58984h-48.4863c-2.73438 0-4.58984 1.85547-4.58984 4.58984 0 2.58789 1.85547 4.39453 4.58984 4.39453Z"/>
  </g>
  <text style="stroke:none;fill:black;font-family:sans-serif;font-size:13;font-weight:bold;" transform="matrix(1 0 0 1 263 1953)">Design Variations</text>
  <text style="stroke:none;fill:black;font-family:sans-serif;font-size:13;" transform="matrix(1 0 0 1 263 1971)">Symbols are supported in up to nine weights and three scales.</text>
  <text style="stroke:none;fill:black;font-family:sans-serif;font-size:13;" transform="matrix(1 0 0 1 263 1989)">For optimal layout with text and other symbols, vertically align</text>
  <text style="stroke:none;fill:black;font-family:sans-serif;font-size:13;" transform="matrix(1 0 0 1 263 2007)">symbols with the adjacent text.</text>
  <line style="fill:none;stroke:#00AEEF;stroke-width:0.5;opacity:1.0;" x1="776" x2="776" y1="1919" y2="1933"/>
  <g transform="matrix(0.2 0 0 0.2 776 1933)">
   <path d="m16.5527 0.78125c2.58789 0 3.85742-0.976562 4.78516-3.71094l20.5566-57.5195h0.244141l20.6055 57.5195c0.927734 2.73438 2.19727 3.71094 4.73633 3.71094 2.58789 0 4.24805-1.5625 4.24805-4.00391 0-0.830078-0.146484-1.61133-0.537109-2.63672l-22.9004-60.9863c-1.12305-2.97852-3.125-4.49219-6.25-4.49219-3.02734 0-5.07812 1.46484-6.15234 4.44336l-22.9004 61.084c-0.390625 1.02539-0.537109 1.80664-0.537109 2.63672 0 2.44141 1.5625 3.95508 4.10156 3.95508Zm10.2051-20.9473h30.6641c2.00195 0 3.66211-1.66016 3.66211-3.66211 0-2.05078-1.66016-3.66211-3.66211-3.66211h-30.6641c-2.00195 0-3.66211 1.61133-3.66211 3.66211 0 2.00195 1.66016 3.66211 3.66211 3.66211Z"/>
  </g>
  <line style="fill:none;stroke:#00AEEF;stroke-width:0.5;opacity:1.0;" x1="792.836" x2="792.836" y1="1919" y2="1933"/>
  <text style="stroke:none;fill:black;font-family:sans-serif;font-size:13;font-weight:bold;" transform="matrix(1 0 0 1 776 1953)">Margins</text>
  <text style="stroke:none;fill:black;font-family:sans-serif;font-size:13;" transform="matrix(1 0 0 1 776 1971)">Leading and trailing margins on the left and right side of each symbol</text>
  <text style="stroke:none;fill:black;font-family:sans-serif;font-size:13;" transform="matrix(1 0 0 1 776 1989)">can be adjusted by modifying the x-location of the margin guidelines.</text>
  <text style="stroke:none;fill:black;font-family:sans-serif;font-size:13;" transform="matrix(1 0 0 1 776 2007)">Modifications are automatically applied proportionally to all</text>
  <text style="stroke:none;fill:black;font-family:sans-serif;font-size:13;" transform="matrix(1 0 0 1 776 2025)">scales and weights.</text>
  <g transform="matrix(0.2 0 0 0.2 1289 1933)">
   <path d="m14.209 13.1348 7.86133 7.86133c4.29688 4.39453 9.32617 4.10156 13.8672-1.02539l60.6934-68.2129-4.88281-4.88281-60.2539 67.6758c-1.80664 1.95312-3.4668 2.44141-5.81055 0.0976562l-5.17578-5.12695c-2.29492-2.29492-1.80664-3.95508 0.195312-5.81055l67.4805-62.1582-4.88281-4.83398-68.0664 62.5977c-4.98047 4.58984-5.32227 9.47266-1.02539 13.8184Zm44.873-97.4609c-2.05078 2.00195-2.24609 4.88281-1.07422 6.78711 1.12305 1.80664 3.4668 3.02734 6.5918 2.24609 5.85938-1.66016 12.5977-2.39258 18.8965 0.927734l-2.68555 7.12891c-1.61133 4.00391-0.732422 6.88477 1.70898 9.42383l10.2539 10.3027c2.34375 2.39258 4.54102 2.44141 7.08008 1.95312l4.44336-0.732422 2.58789 2.53906-0.195312 2.24609c-0.0976562 2.29492 0.537109 4.29688 2.7832 6.49414l3.36914 3.32031c2.29492 2.29492 5.51758 2.49023 7.8125 0.195312l12.9883-13.0371c2.29492-2.34375 2.14844-5.37109-0.195312-7.66602l-3.41797-3.41797c-2.19727-2.19727-4.05273-3.02734-6.34766-2.88086l-2.34375 0.244141-2.44141-2.44141 1.02539-4.6875c0.634766-2.73438-0.244141-4.98047-2.88086-7.61719l-11.2793-11.1816c-12.9395-12.8418-35.5957-11.0352-46.6797-0.146484Zm7.08008 2.05078c8.78906-6.39648 25.9766-5.66406 33.6914 1.95312l12.3047 12.207c1.02539 1.02539 1.2207 1.80664 0.927734 3.32031l-1.46484 6.64062 6.73828 6.68945 4.39453-0.244141c1.12305-0.0488281 1.51367 0.0488281 2.34375 0.878906l2.53906 2.49023-10.8398 10.8398-2.49023-2.49023c-0.830078-0.878906-0.976562-1.2207-0.927734-2.39258l0.292969-4.3457-6.68945-6.73828-6.83594 1.17188c-1.41602 0.292969-2.05078 0.195312-3.17383-0.878906l-8.93555-8.88672c-1.07422-1.02539-1.17188-1.70898-0.488281-3.36914l4.58984-11.4746c-6.10352-6.34766-17.041-7.51953-25.5859-4.58984-0.683594 0.244141-0.927734-0.390625-0.390625-0.78125Z"/>
  </g>
  <text style="stroke:none;fill:black;font-family:sans-serif;font-size:13;font-weight:bold;" transform="matrix(1 0 0 1 1289 1953)">Exporting</text>
  <text style="stroke:none;fill:black;font-family:sans-serif;font-size:13;" transform="matrix(1 0 0 1 1289 1971)">Symbols should be outlined when exporting to ensure the</text>
  <text style="stroke:none;fill:black;font-family:sans-serif;font-size:13;" transform="matrix(1 0 0 1 1289 1989)">design is preserved when submitting to Xcode.</text>
  <text id="template-version" style="stroke:none;fill:black;font-family:sans-serif;font-size:13;text-anchor:end;" transform="matrix(1 0 0 1 3036 1933)">Template v.7.0</text>
  <text style="stroke:none;fill:black;font-family:sans-serif;font-size:13;text-anchor:end;" transform="matrix(1 0 0 1 3036 1951)">Requires Xcode 26 or greater</text>
  <text id="descriptive-name" style="stroke:none;fill:black;font-family:sans-serif;font-size:13;text-anchor:end;" transform="matrix(1 0 0 1 3036 1969)">Generated from arrow.trianglehead.counterclockwise</text>
  <text style="stroke:none;fill:black;font-family:sans-serif;font-size:13;text-anchor:end;" transform="matrix(1 0 0 1 3036 1987)">Typeset at 100.0 points</text>
  <text style="stroke:none;fill:black;font-family:sans-serif;font-size:13;" transform="matrix(1 0 0 1 263 726)">Small</text>
  <text style="stroke:none;fill:black;font-family:sans-serif;font-size:13;" transform="matrix(1 0 0 1 263 1156)">Medium</text>
  <text style="stroke:none;fill:black;font-family:sans-serif;font-size:13;" transform="matrix(1 0 0 1 263 1586)">Large</text>
 </g>
 <g id="Guides">
  <g id="H-reference" style="fill:#27AAE1;stroke:none;" transform="matrix(1 0 0 1 339 696)">
   <path d="M0.993654 0L3.63775 0L29.3281-67.1323L30.0303-67.1323L30.0303-70.459L28.1226-70.459ZM11.6885-24.4799L46.9815-24.4799L46.2315-26.7285L12.4385-26.7285ZM55.1196 0L57.7637 0L30.6382-70.459L29.4326-70.459L29.4326-67.1323Z"/>
  </g>
  <line id="Baseline-S" style="fill:none;stroke:#27AAE1;opacity:1;stroke-width:0.5;" x1="263" x2="3036" y1="696" y2="696"/>
  <line id="Capline-S" style="fill:none;stroke:#27AAE1;opacity:1;stroke-width:0.5;" x1="263" x2="3036" y1="625.541" y2="625.541"/>
  <g id="H-reference" style="fill:#27AAE1;stroke:none;" transform="matrix(1 0 0 1 339 1126)">
   <path d="M0.993654 0L3.63775 0L29.3281-67.1323L30.0303-67.1323L30.0303-70.459L28.1226-70.459ZM11.6885-24.4799L46.9815-24.4799L46.2315-26.7285L12.4385-26.7285ZM55.1196 0L57.7637 0L30.6382-70.459L29.4326-70.459L29.4326-67.1323Z"/>
  </g>
  <line id="Baseline-M" style="fill:none;stroke:#27AAE1;opacity:1;stroke-width:0.5;" x1="263" x2="3036" y1="1126" y2="1126"/>
  <line id="Capline-M" style="fill:none;stroke:#27AAE1;opacity:1;stroke-width:0.5;" x1="263" x2="3036" y1="1055.54" y2="1055.54"/>
  <g id="H-reference" style="fill:#27AAE1;stroke:none;" transform="matrix(1 0 0 1 339 1556)">
   <path d="M0.993654 0L3.63775 0L29.3281-67.1323L30.0303-67.1323L30.0303-70.459L28.1226-70.459ZM11.6885-24.4799L46.9815-24.4799L46.2315-26.7285L12.4385-26.7285ZM55.1196 0L57.7637 0L30.6382-70.459L29.4326-70.459L29.4326-67.1323Z"/>
  </g>
  <line id="Baseline-L" style="fill:none;stroke:#27AAE1;opacity:1;stroke-width:0.5;" x1="263" x2="3036" y1="1556" y2="1556"/>
  <line id="Capline-L" style="fill:none;stroke:#27AAE1;opacity:1;stroke-width:0.5;" x1="263" x2="3036" y1="1485.54" y2="1485.54"/>
  <line id="right-margin-Black-S" style="fill:none;stroke:#00AEEF;stroke-width:0.5;opacity:1.0;" x1="2982.23" x2="2982.23" y1="600.785" y2="720.121"/>
  <line id="left-margin-Black-S" style="fill:none;stroke:#00AEEF;stroke-width:0.5;opacity:1.0;" x1="2884.57" x2="2884.57" y1="600.785" y2="720.121"/>
  <line id="right-margin-Regular-S" style="fill:none;stroke:#00AEEF;stroke-width:0.5;opacity:1.0;" x1="1496.11" x2="1496.11" y1="600.785" y2="720.121"/>
  <line id="left-margin-Regular-S" style="fill:none;stroke:#00AEEF;stroke-width:0.5;opacity:1.0;" x1="1403.58" x2="1403.58" y1="600.785" y2="720.121"/>
  <line id="right-margin-Ultralight-S" style="fill:none;stroke:#00AEEF;stroke-width:0.5;opacity:1.0;" x1="603.773" x2="603.773" y1="600.785" y2="720.121"/>
  <line id="left-margin-Ultralight-S" style="fill:none;stroke:#00AEEF;stroke-width:0.5;opacity:1.0;" x1="515.649" x2="515.649" y1="600.785" y2="720.121"/>
 </g>
 <g id="Symbols">
  <g id="Black-S" transform="matrix(1 0 0 1 2884.57 696)">
   <path class="monochrome-0 multicolor-0:tintColor hierarchical-0:secondary SFSymbolsPreviewWireframe" d="M58.0566-80.2246C58.0566-83.5938 54.6387-84.4238 52.3926-82.6172L39.1602-72.1191C37.6953-70.9961 37.6953-68.75 39.1602-67.5781L52.3926-57.1289C54.6387-55.3711 58.0566-56.1523 58.0566-59.4727ZM48.8281 6.73828C72.0215 6.73828 90.8203-12.1094 90.8203-35.2539C90.8203-58.4473 72.0215-77.2461 48.7305-77.2461C44.8242-77.2461 41.6504-74.0723 41.6504-70.166C41.6504-66.2598 44.8242-63.0859 48.7305-63.0859C64.209-63.0859 76.6602-50.6348 76.6602-35.2539C76.6602-19.873 64.209-7.42188 48.8281-7.42188C33.4473-7.42188 20.9961-19.873 20.9961-35.2539C20.9961-42.4805 23.4863-48.4863 28.2227-53.9551C31.1035-57.3242 32.0801-61.5723 28.9062-64.7461C26.123-67.5293 21.7285-67.627 18.1641-63.916C10.5469-55.957 6.83594-45.2637 6.83594-35.2539C6.83594-12.1094 25.6348 6.73828 48.8281 6.73828Z" data-clipstroke-keyframes="0 0 0 1.7152376 1.7728873 0 0.16665044 1.8491018 1.6653684 0 0.4767699 1.0014274 1.5643885 0 0.73794615 1.148074 1.467178 0 1 1.2952926 1.3696408"/>
   <path class="monochrome-1 multicolor-1:tintColor hierarchical-1:primary SFSymbolsPreviewWireframe" d="M46.4741-12.6703C46.4741-18.3037 46.4741-23.9371 46.4741-29.5705C43.0983-26.1732 39.7225-22.7759 36.3467-19.3786C35.236-20.4882 34.1254-21.5978 33.0147-22.7074C37.1888-26.8814 41.3628-31.0555 45.5368-35.2295C41.3628-39.4035 37.1888-43.5776 33.0147-47.7516C34.1254-48.8612 35.236-49.9708 36.3467-51.0804C39.7225-47.6973 43.0983-44.3142 46.4741-40.9311C46.4741-46.5503 46.4741-52.1695 46.4741-57.7887C47.2723-57.7887 48.0705-57.7887 48.8688-57.7887C53.1832-53.474 57.4977-49.1593 61.8121-44.8447C58.6071-41.6396 55.402-38.4346 52.1969-35.2295C55.402-32.0244 58.6071-28.8194 61.8121-25.6143C57.4977-21.2997 53.1832-16.985 48.8688-12.6703C48.0705-12.6703 47.2723-12.6703 46.4741-12.6703ZM51.2635-40.9311C52.5596-42.2356 53.8558-43.5401 55.152-44.8447C53.8558-46.123 52.5596-47.4012 51.2635-48.6795C51.2635-46.0967 51.2635-43.5139 51.2635-40.9311ZM51.2635-21.8221C52.5596-23.0862 53.8558-24.3502 55.152-25.6143C53.8558-26.9331 52.5596-28.2518 51.2635-29.5705C51.2635-26.9877 51.2635-24.4049 51.2635-21.8221ZM29.7946-32.7579C29.1208-33.4189 28.7839-34.2428 28.7839-35.2295C28.7839-36.2162 29.1208-37.0531 29.7946-37.7401C30.4682-38.4272 31.2985-38.7708 32.2852-38.7708C33.2719-38.7708 34.0911-38.4272 34.7429-37.7401C35.3952-37.0531 35.7213-36.2162 35.7213-35.2295C35.7213-34.2428 35.3952-33.4189 34.7429-32.7579C34.0911-32.0964 33.2719-31.7657 32.2852-31.7657C31.2985-31.7657 30.4682-32.0964 29.7946-32.7579ZM62.9133-32.7579C62.2611-33.4189 61.935-34.2428 61.935-35.2295C61.935-36.2162 62.2611-37.0531 62.9133-37.7401C63.5651-38.4272 64.3843-38.7708 65.3711-38.7708C66.3578-38.7708 67.188-38.4272 67.8617-37.7401C68.5354-37.0531 68.8723-36.2162 68.8723-35.2295C68.8723-34.2428 68.5354-33.4189 67.8617-32.7579C67.188-32.0964 66.3578-31.7657 65.3711-31.7657C64.3843-31.7657 63.5651-32.0964 62.9133-32.7579Z"/>
  </g>
  <g id="Regular-S" transform="matrix(1 0 0 1 1403.58 696)">
   <path class="monochrome-0 multicolor-0:tintColor hierarchical-0:secondary SFSymbolsPreviewWireframe" d="M53.8574-79.1016C53.8574-82.1777 51.7578-82.959 49.4629-81.2988L37.1094-72.5586C35.1562-71.1914 35.2051-69.1895 37.1094-67.8223L49.5117-59.1309C51.7578-57.5195 53.8574-58.3008 53.8574-61.3281ZM46.2402 4.15039C68.0176 4.15039 85.6934-13.4766 85.6934-35.2539C85.6934-57.0312 68.0664-74.6094 46.1914-74.6582C44.1895-74.6094 42.5293-72.998 42.5293-70.9473C42.5293-68.8965 44.2383-67.2363 46.2402-67.2363C63.916-67.2363 78.2227-52.9297 78.2227-35.2539C78.2227-17.5781 63.916-3.27148 46.2402-3.27148C28.5645-3.27148 14.3066-17.5781 14.3066-35.2539C14.3066-45.7031 19.2871-54.8828 26.9043-60.6934C28.6621-62.0605 29.248-64.1113 28.125-65.918C27.0508-67.7246 24.5117-68.2129 22.5586-66.748C12.9883-59.4727 6.83594-48.2422 6.83594-35.2539C6.83594-13.4766 24.5117 4.15039 46.2402 4.15039Z" data-clipstroke-keyframes="0 0 0 1.7399985 1.7701907 0 0.18615787 1.8580871 1.6687284 0 0.47438353 1.0013447 1.5525093 0 0.73694307 1.1392022 1.4406793 0 1 1.2773557 1.3286372"/>
   <path class="monochrome-1 multicolor-1:tintColor hierarchical-1:primary SFSymbolsPreviewWireframe" d="M44.2312-13.1067C44.2312-18.8338 44.2312-24.5608 44.2312-30.2879C40.748-26.7969 37.2649-23.3059 33.7817-19.8149C32.817-20.7791 31.8523-21.7432 30.8876-22.7074C35.0616-26.8814 39.2356-31.0555 43.4097-35.2295C39.2356-39.4035 35.0616-43.5776 30.8876-47.7516C31.8523-48.7158 32.817-49.6799 33.7817-50.6441C37.2649-47.1582 40.748-43.6723 44.2312-40.1864C44.2312-45.9084 44.2312-51.6303 44.2312-57.3523C44.9221-57.3523 45.6129-57.3523 46.3038-57.3523C50.4728-53.1831 54.6418-49.0139 58.8108-44.8447C55.6058-41.6396 52.4007-38.4346 49.1957-35.2295C52.4007-32.0244 55.6058-28.8194 58.8108-25.6143C54.6418-21.4451 50.4728-17.2759 46.3038-13.1067C45.6129-13.1067 44.9221-13.1067 44.2312-13.1067ZM48.3761-40.1864C49.9257-41.7391 51.4753-43.2919 53.0248-44.8447C51.4753-46.3636 49.9257-47.8825 48.3761-49.4014C48.3761-46.3297 48.3761-43.258 48.3761-40.1864ZM48.3761-21.0729C49.9257-22.5867 51.4753-24.1005 53.0248-25.6143C51.4753-27.1722 49.9257-28.7301 48.3761-30.2879C48.3761-27.2163 48.3761-24.1446 48.3761-21.0729ZM28.0331-33.0062C27.4165-33.61 27.1083-34.3511 27.1083-35.2295C27.1083-36.1079 27.4165-36.8617 28.0331-37.4911C28.6495-38.1205 29.397-38.4352 30.2754-38.4352C31.1537-38.4352 31.8972-38.1205 32.5059-37.4911C33.1147-36.8617 33.4191-36.1079 33.4191-35.2295C33.4191-34.3511 33.1147-33.61 32.5059-33.0062C31.8972-32.402 31.1537-32.0999 30.2754-32.0999C29.397-32.0999 28.6495-32.402 28.0331-33.0062ZM60.0234-33.0062C59.4146-33.61 59.1102-34.3511 59.1102-35.2295C59.1102-36.1079 59.4146-36.8617 60.0234-37.4911C60.6321-38.1205 61.3756-38.4352 62.2539-38.4352C63.1323-38.4352 63.8797-38.1205 64.4962-37.4911C65.1128-36.8617 65.421-36.1079 65.421-35.2295C65.421-34.3511 65.1128-33.61 64.4962-33.0062C63.8797-32.402 63.1323-32.0999 62.2539-32.0999C61.3756-32.0999 60.6321-32.402 60.0234-33.0062Z"/>
  </g>
  <g id="Ultralight-S" transform="matrix(1 0 0 1 515.649 696)">
   <path class="monochrome-0 multicolor-0:tintColor hierarchical-0:secondary SFSymbolsPreviewWireframe" d="M50.4517-78.3296C50.4517-79.6348 49.5327-80.1436 48.2822-79.2554L36.9277-71.2871C35.8828-70.6011 35.8862-69.6436 36.9277-68.9575L48.2857-60.9927C49.5327-60.1079 50.4517-60.6167 50.4517-61.9185ZM44.0606 1.97072C64.6118 1.97072 81.2886-14.7026 81.2886-35.2539C81.2886-55.8052 64.6153-72.4751 44.0117-72.4785C43.3267-72.4751 42.8926-71.9082 42.8926-71.356C42.8926-70.8037 43.3301-70.2334 44.0152-70.2334C63.4165-70.2334 79.04-54.6099 79.04-35.2539C79.04-15.898 63.4165-0.274438 44.0606-0.274438C24.7046-0.274438 9.0391-15.898 9.0391-35.2539C9.0391-48.1553 16.0176-59.4692 26.541-65.5068C27.0728-65.875 27.25-66.518 26.9443-67.0986C26.6875-67.5884 25.9648-67.7588 25.3286-67.3838C14.2598-60.9712 6.83594-48.9233 6.83594-35.2539C6.83594-14.7026 23.5127 1.97072 44.0606 1.97072Z" data-clipstroke-keyframes="0 0 0 1.7609242 1.7710835 0 0.19425215 1.8647497 1.6720719 0 0.47327742 1.0012788 1.5436678 0 0.736322 1.1327225 1.4201252 0 1 1.2644778 1.2962853"/>
   <path class="monochrome-1 multicolor-1:tintColor hierarchical-1:primary SFSymbolsPreviewWireframe" d="M42.8535-14.2668C42.8535-20.2682 42.8535-26.2696 42.8535-32.271C39.0882-28.5057 35.3228-24.7404 31.5574-20.9751C30.9866-21.5526 30.4158-22.13 29.845-22.7074C34.019-26.8814 38.193-31.0555 42.3671-35.2295C38.193-39.4035 34.019-43.5776 29.845-47.7516C30.4158-48.329 30.9866-48.9064 31.5574-49.4839C35.3228-45.7186 39.0882-41.9533 42.8535-38.188C42.8535-44.1894 42.8535-50.1907 42.8535-56.1921C43.2622-56.1921 43.6709-56.1921 44.0795-56.1921C47.8621-52.4096 51.6446-48.6271 55.4272-44.8447C52.2221-41.6396 49.0171-38.4346 45.812-35.2295C49.0171-32.0244 52.2221-28.8194 55.4272-25.6143C51.6446-21.8318 47.8621-18.0493 44.0795-14.2668C43.6709-14.2668 43.2622-14.2668 42.8535-14.2668ZM45.3057-38.188C47.5312-40.4069 49.7567-42.6258 51.9822-44.8447C49.7567-47.0462 47.5312-49.2478 45.3057-51.4494C45.3057-47.0289 45.3057-42.6084 45.3057-38.188ZM45.3057-19.0096C47.5312-21.2112 49.7567-23.4128 51.9822-25.6143C49.7567-27.8332 47.5312-30.0521 45.3057-32.271C45.3057-27.8506 45.3057-23.4301 45.3057-19.0096ZM27.497-33.7381C27.0722-34.1506 26.8597-34.6477 26.8597-35.2295C26.8597-35.8113 27.0722-36.3176 27.497-36.7482C27.9222-37.179 28.4255-37.3943 29.0071-37.3943C29.5888-37.3943 30.0923-37.179 30.5175-36.7482C30.9423-36.3176 31.1548-35.8113 31.1548-35.2295C31.1548-34.6477 30.9423-34.1506 30.5175-33.7381C30.0923-33.3255 29.5888-33.1192 29.0071-33.1192C28.4255-33.1192 27.9222-33.3255 27.497-33.7381ZM57.6071-33.7381C57.1822-34.1506 56.9698-34.6477 56.9698-35.2295C56.9698-35.8113 57.1822-36.3176 57.6071-36.7482C58.0322-37.179 58.5357-37.3943 59.1175-37.3943C59.699-37.3943 60.2024-37.179 60.6275-36.7482C61.0524-36.3176 61.2648-35.8113 61.2648-35.2295C61.2648-34.6477 61.0524-34.1506 60.6275-33.7381C60.2024-33.3255 59.699-33.1192 59.1175-33.1192C58.5357-33.1192 58.0322-33.3255 57.6071-33.7381Z"/>
  </g>
 </g>
 <g id="Data">
  <g id="Black-S-draw-attachment-data" data-d="0 1 0 2938.09 626.156"/>
  <g id="Regular-S-draw-attachment-data" data-d="0 1 0 1454.92 625.421"/>
  <g id="Ultralight-S-draw-attachment-data" data-d="0 1 0 564.627 624.981"/>
 </g>
</svg>
